<?xml version="1.0" standalone="no"?>
<!DOCTYPE svg PUBLIC "-//W3C//DTD SVG 20010904//EN"
 "http://www.w3.org/TR/2001/REC-SVG-20010904/DTD/svg10.dtd">
<svg version="1.0" xmlns="http://www.w3.org/2000/svg"
 width="1024.000000pt" height="1024.000000pt" viewBox="0 0 1024.000000 1024.000000"
 preserveAspectRatio="xMidYMid meet">
<metadata>
Created by potrace 1.14, written by Peter Selinger 2001-2017
</metadata>
<g transform="translate(0.000000,1024.000000) scale(0.100000,-0.100000)"
fill="#000000" stroke="none">
<path d="M5428 8046 c-3 -26 -18 -63 -37 -91 -17 -25 -31 -52 -31 -59 0 -6
-11 -27 -25 -46 -14 -19 -25 -39 -25 -44 -1 -6 -11 -23 -23 -38 -22 -26 -25
-27 -157 -31 -163 -5 -332 -22 -420 -42 -36 -8 -90 -17 -120 -21 -30 -4 -67
-13 -82 -20 -15 -8 -44 -14 -65 -14 -22 0 -65 -7 -96 -15 -32 -8 -83 -18 -115
-21 -31 -4 -76 -15 -99 -25 -23 -11 -65 -19 -93 -19 -34 0 -52 -5 -56 -14 -3
-8 -21 -17 -40 -20 -38 -8 -46 -25 -11 -27 61 -4 134 5 152 17 11 8 41 14 67
14 26 0 67 6 90 14 27 10 128 19 273 26 127 6 260 18 297 26 67 14 301 20 332
8 24 -9 19 -34 -19 -93 -19 -29 -35 -58 -35 -65 0 -7 -9 -23 -20 -36 -11 -13
-20 -29 -20 -37 0 -7 -9 -21 -20 -30 -11 -10 -20 -24 -20 -31 0 -8 -9 -25 -20
-39 -11 -14 -20 -33 -20 -43 0 -9 -9 -25 -20 -35 -11 -10 -20 -26 -20 -35 0
-10 -6 -20 -14 -23 -8 -3 -17 -19 -21 -36 -3 -16 -13 -35 -21 -42 -8 -6 -14
-17 -14 -24 0 -7 -9 -24 -20 -38 -11 -14 -20 -32 -20 -40 0 -7 -9 -22 -20 -32
-11 -10 -20 -24 -20 -30 0 -7 -6 -18 -14 -24 -8 -7 -18 -25 -21 -41 -3 -16
-12 -34 -20 -40 -8 -6 -17 -24 -20 -40 -3 -16 -12 -31 -19 -33 -8 -3 -16 -22
-20 -41 -4 -20 -11 -36 -16 -36 -5 0 -14 -17 -21 -37 -6 -21 -18 -44 -26 -51
-7 -7 -13 -22 -13 -32 0 -11 -9 -24 -21 -30 -13 -7 -18 -17 -15 -27 4 -8 -7
-39 -24 -68 l-30 -52 -79 -6 c-44 -4 -96 -13 -117 -22 -29 -12 -82 -15 -260
-15 -122 0 -225 -4 -228 -9 -8 -12 18 -21 57 -21 18 0 45 -7 61 -15 23 -12 74
-17 210 -20 271 -7 250 -3 254 -50 2 -26 -3 -54 -16 -80 -28 -55 -62 -141 -62
-156 0 -7 -6 -20 -14 -28 -7 -9 -21 -41 -30 -71 -10 -30 -29 -77 -42 -103 -23
-46 -31 -87 -18 -87 10 0 64 58 64 69 0 6 4 11 9 11 5 0 14 15 22 33 7 17 19
36 26 40 7 4 13 16 13 26 0 10 9 26 20 36 11 10 20 23 20 29 0 14 48 66 60 66
6 0 10 9 10 20 0 11 8 28 18 38 9 9 23 28 29 42 7 14 17 33 23 43 5 9 15 25
20 35 6 9 15 28 22 42 7 14 24 37 39 51 25 24 37 27 118 31 62 3 96 9 108 20
11 9 47 18 90 22 40 3 101 13 135 21 35 8 75 15 89 15 15 0 32 6 38 14 6 7 39
16 73 19 40 3 66 11 74 21 6 9 24 16 40 16 16 1 47 8 69 16 22 9 58 20 80 25
22 6 47 16 55 22 20 16 87 47 103 47 7 0 29 9 50 20 47 25 61 25 78 -1 l14
-21 27 21 c14 12 32 21 39 21 6 0 37 17 67 37 31 20 76 47 101 60 26 14 51 31
57 39 6 7 28 21 48 29 21 9 69 46 108 83 38 37 76 70 83 75 7 4 16 21 20 38 4
17 13 42 20 56 12 22 12 31 1 52 -8 14 -17 48 -21 75 -4 27 -13 59 -20 70 -7
12 -16 40 -20 63 -4 23 -13 47 -21 54 -8 6 -14 18 -14 26 0 27 -116 163 -139
163 -6 0 -11 6 -11 13 0 8 -10 19 -22 25 -32 17 -59 34 -82 55 -11 9 -26 17
-33 17 -7 0 -22 9 -33 20 -11 11 -31 20 -44 20 -13 0 -26 5 -28 10 -2 6 -29
17 -60 24 -32 7 -63 18 -70 23 -7 6 -44 14 -83 18 -38 4 -74 10 -80 15 -5 4
-31 11 -57 14 -26 4 -50 11 -53 16 -3 6 -10 60 -15 122 -11 127 -28 208 -46
208 -6 0 -14 -20 -16 -44z m220 -456 c10 -16 23 -20 72 -20 48 0 64 -4 77 -20
11 -13 30 -20 51 -20 19 0 45 -9 59 -20 14 -11 34 -20 43 -20 10 0 23 -6 29
-14 6 -7 26 -16 44 -19 20 -3 54 -25 91 -58 84 -75 156 -151 156 -164 0 -5 9
-16 20 -23 17 -10 20 -23 20 -90 -1 -67 -4 -81 -25 -104 -13 -16 -28 -28 -32
-28 -5 0 -16 -8 -25 -17 -9 -10 -32 -29 -52 -43 -20 -14 -46 -33 -58 -42 -11
-10 -24 -18 -29 -18 -11 0 -89 -53 -89 -61 0 -3 -14 -9 -32 -13 -17 -3 -38
-12 -46 -18 -14 -12 -34 -21 -112 -48 -19 -7 -53 -21 -76 -31 -23 -11 -50 -19
-62 -19 -11 0 -39 -9 -63 -20 -24 -11 -57 -20 -72 -20 -15 0 -30 -7 -33 -15
-4 -8 -18 -15 -33 -15 -14 0 -43 -9 -64 -20 -20 -11 -45 -20 -55 -20 -9 0 -34
-9 -55 -20 -20 -11 -52 -20 -69 -20 -18 0 -48 -9 -66 -20 -20 -12 -50 -20 -78
-20 -25 0 -58 -7 -75 -15 -16 -9 -61 -20 -99 -24 -39 -5 -76 -14 -83 -19 -21
-16 -67 -23 -87 -12 -17 9 -18 14 -8 38 7 15 18 34 25 43 7 8 13 23 13 32 0
20 14 53 40 92 11 17 24 41 30 55 5 14 15 32 20 40 6 8 15 26 21 40 6 14 15
32 20 40 5 8 15 26 22 40 12 25 23 40 58 80 10 10 20 32 24 49 3 17 10 33 14
36 5 2 21 29 36 60 16 30 36 62 47 71 10 10 18 23 18 30 0 7 8 18 18 23 10 5
24 22 32 36 8 15 25 31 37 36 13 5 23 17 23 27 0 28 39 72 78 89 41 17 137
113 196 198 9 13 31 21 67 26 30 3 56 7 59 8 3 0 11 -8 18 -19z m188 -1008
c-22 -5 -30 3 -21 18 5 8 11 7 22 -2 15 -12 14 -13 -1 -16z"/>
<path d="M4175 5640 c-8 -13 4 -32 16 -25 12 8 12 35 0 35 -6 0 -13 -4 -16
-10z"/>
<path d="M1266 5024 c-9 -24 -7 -1127 3 -1142 6 -10 65 -13 276 -12 148 0 273
4 279 9 6 5 39 12 74 16 34 4 69 13 76 21 8 7 25 16 39 19 15 4 31 13 38 21 6
8 17 14 24 14 18 0 145 119 145 136 0 8 5 14 11 14 5 0 16 15 24 34 8 19 19
37 24 40 4 3 11 25 15 48 4 23 12 48 19 56 7 9 13 60 16 126 3 96 0 121 -20
181 -30 94 -67 175 -79 175 -6 0 -10 6 -10 13 0 18 -122 137 -141 137 -8 0
-22 9 -32 20 -9 11 -27 20 -40 20 -13 0 -28 5 -35 12 -27 27 -167 41 -415 44
-137 1 -251 5 -254 8 -12 11 -31 6 -37 -10z m580 -229 c10 -8 26 -15 33 -15
35 0 134 -85 147 -125 3 -11 14 -28 23 -39 25 -28 24 -295 -1 -323 -10 -11
-18 -24 -18 -29 0 -16 -63 -94 -76 -94 -6 0 -19 -9 -28 -19 -10 -11 -32 -23
-49 -27 -18 -4 -41 -13 -53 -21 -16 -10 -55 -13 -165 -11 l-143 3 -7 25 c-11
39 -10 635 1 664 l10 26 153 0 c119 0 157 -3 173 -15z"/>
<path d="M2863 5031 c-30 -8 -59 -48 -73 -101 -7 -24 -18 -53 -26 -64 -8 -11
-14 -28 -14 -38 0 -10 -9 -35 -20 -55 -11 -21 -20 -48 -20 -60 0 -12 -4 -24
-9 -28 -5 -3 -15 -22 -21 -43 -11 -37 -17 -51 -59 -145 -11 -26 -21 -54 -21
-62 0 -8 -9 -32 -20 -52 -11 -21 -20 -47 -20 -58 0 -11 -9 -33 -20 -50 -11
-16 -20 -40 -20 -51 0 -12 -6 -27 -14 -33 -8 -7 -17 -28 -21 -49 -3 -20 -12
-46 -19 -57 -8 -11 -17 -36 -21 -55 -4 -19 -14 -42 -22 -51 -8 -9 -15 -36 -16
-60 l-2 -44 130 0 129 0 11 35 c6 19 16 46 22 60 7 14 14 38 18 53 3 17 15 31
31 37 37 14 445 11 475 -4 14 -7 26 -24 30 -44 3 -17 11 -38 17 -44 5 -7 13
-28 17 -46 3 -18 15 -37 25 -42 10 -6 68 -10 129 -10 101 0 110 2 116 20 8 25
-3 80 -20 100 -7 8 -16 31 -20 50 -4 19 -14 44 -21 55 -8 11 -14 26 -14 35 0
8 -9 32 -20 53 -11 20 -20 45 -20 55 0 10 -6 26 -14 37 -7 11 -17 31 -20 45
-11 38 -46 130 -67 176 -11 23 -19 50 -19 61 0 11 -7 26 -15 33 -8 7 -15 22
-15 34 0 11 -9 36 -20 54 -11 18 -20 40 -20 50 0 10 -9 35 -20 57 -11 22 -20
45 -20 53 0 7 -9 30 -20 52 -11 22 -20 48 -20 59 0 11 -12 33 -26 51 l-26 31
-108 -2 c-60 -1 -112 1 -117 3 -4 3 -18 2 -30 -1z m152 -328 c3 -21 12 -51 20
-68 8 -16 19 -49 25 -72 6 -23 14 -45 19 -47 5 -3 12 -23 16 -43 4 -21 11 -41
17 -44 17 -11 38 -132 25 -141 -7 -4 -79 -8 -160 -8 -167 0 -168 1 -149 74 16
63 48 146 61 159 6 6 11 23 11 37 0 14 9 42 20 63 11 20 20 47 20 59 0 50 11
68 41 68 25 0 29 -4 34 -37z"/>
<path d="M4482 5025 c-4 -5 -9 -163 -12 -349 -4 -246 -8 -340 -17 -343 -6 -2
-15 6 -18 19 -7 22 -12 28 -55 76 -11 12 -20 27 -20 32 0 6 -7 13 -15 16 -8 3
-17 15 -20 25 -4 11 -33 53 -66 94 -32 41 -59 79 -59 84 0 6 -6 14 -13 18 -6
4 -26 28 -42 53 -16 25 -36 49 -42 53 -7 4 -13 14 -13 22 0 8 -9 19 -20 25
-11 6 -20 17 -20 24 0 7 -9 21 -20 31 -11 10 -20 22 -20 28 0 15 -50 70 -77
84 -37 19 -217 18 -233 -2 -16 -20 -17 -1094 0 -1125 10 -18 21 -20 115 -20
64 0 106 4 111 11 3 6 6 162 5 348 -1 272 1 341 13 356 13 18 14 18 26 -6 14
-25 79 -113 105 -140 8 -9 15 -19 15 -23 0 -8 61 -91 93 -127 7 -8 17 -22 20
-30 4 -8 26 -39 50 -70 23 -31 64 -88 92 -125 27 -38 69 -93 92 -122 24 -30
43 -58 43 -63 0 -5 49 -9 110 -9 102 0 110 1 121 22 18 34 14 1107 -5 1126
-16 16 -214 23 -224 7z"/>
<path d="M4967 5017 c-14 -21 -16 -90 -17 -566 0 -365 3 -548 10 -561 10 -18
21 -20 119 -20 104 0 109 1 115 23 3 12 6 176 6 364 0 340 5 388 32 326 7 -15
18 -32 23 -38 6 -5 24 -30 40 -55 17 -25 36 -49 42 -53 7 -4 13 -14 13 -22 0
-8 9 -19 20 -25 11 -6 20 -17 20 -24 0 -8 6 -19 14 -25 8 -7 36 -44 62 -84 27
-40 54 -76 61 -80 7 -4 13 -13 13 -20 0 -7 18 -32 40 -56 22 -25 40 -49 40
-54 0 -6 7 -17 15 -26 46 -51 55 -62 55 -67 0 -3 14 -23 32 -45 l31 -39 103 0
c96 0 104 2 115 22 9 16 12 167 12 566 -1 465 -3 546 -15 559 -11 11 -41 14
-117 15 -57 0 -106 -3 -109 -7 -4 -4 -9 -160 -12 -347 -4 -247 -8 -342 -17
-345 -6 -2 -15 6 -18 19 -7 22 -12 28 -55 76 -11 12 -20 25 -20 28 0 3 -10 19
-22 34 -13 15 -30 37 -38 50 -8 12 -24 34 -35 48 -26 33 -105 143 -150 209
-20 28 -42 54 -50 57 -8 3 -15 10 -15 15 0 15 -57 97 -91 131 -29 29 -34 30
-119 30 -49 0 -95 2 -103 6 -8 3 -21 -5 -30 -19z"/>
<path d="M6225 5010 c-18 -35 -21 -1077 -3 -1115 11 -24 14 -25 118 -25 103 0
108 1 114 23 8 31 6 1098 -3 1120 -6 16 -21 18 -110 20 -101 2 -103 2 -116
-23z"/>
<path d="M7876 5025 c-8 -21 -8 -1118 0 -1139 9 -22 205 -24 224 -2 8 11 11
106 10 362 -1 315 1 346 15 340 9 -3 23 -6 30 -6 7 0 16 -12 20 -27 6 -26 17
-42 58 -81 9 -9 17 -21 17 -28 0 -6 9 -19 20 -29 11 -10 20 -24 20 -31 0 -7 9
-18 20 -24 11 -6 20 -16 20 -21 0 -6 10 -24 23 -39 12 -15 29 -38 37 -50 8
-13 23 -32 33 -42 9 -10 17 -22 17 -28 0 -5 6 -13 13 -17 7 -4 29 -33 50 -63
78 -116 107 -155 142 -192 l36 -39 107 3 107 3 0 579 0 578 -105 0 c-91 0
-106 -2 -117 -19 -9 -14 -13 -95 -13 -316 -1 -163 2 -301 5 -307 3 -5 3 -20 0
-33 -6 -24 -8 -24 -36 -10 -16 8 -29 20 -29 27 0 11 -81 122 -99 136 -3 3 -19
25 -36 50 -16 25 -34 50 -39 55 -6 6 -24 30 -41 55 -16 25 -52 75 -80 111 -27
36 -59 78 -70 94 -11 15 -28 36 -37 47 -10 10 -18 22 -18 28 0 5 -15 25 -34
45 l-34 35 -94 0 c-51 0 -103 3 -114 6 -14 4 -23 0 -28 -11z"/>
<path d="M7010 5010 c-11 -11 -20 -27 -20 -35 0 -8 -9 -32 -20 -52 -11 -21
-20 -47 -20 -59 0 -12 -7 -27 -15 -34 -8 -7 -15 -20 -15 -29 0 -9 -9 -34 -20
-56 -11 -22 -20 -46 -20 -55 0 -8 -9 -32 -20 -53 -11 -20 -20 -45 -20 -54 0
-10 -9 -31 -20 -48 -11 -16 -20 -41 -20 -53 0 -13 -9 -35 -20 -49 -11 -14 -20
-38 -20 -53 0 -15 -7 -33 -15 -40 -8 -7 -18 -30 -21 -51 -4 -21 -12 -44 -20
-50 -7 -6 -16 -30 -20 -54 -3 -25 -12 -50 -20 -56 -8 -6 -14 -20 -14 -30 0
-11 -9 -36 -20 -56 -11 -21 -20 -46 -20 -56 0 -10 -9 -30 -19 -43 -14 -18 -17
-32 -12 -52 4 -15 10 -26 14 -24 4 1 58 2 121 2 l114 0 21 35 c11 19 25 52 30
72 6 21 21 50 33 65 l23 28 231 2 231 3 26 -48 c15 -26 27 -55 27 -65 0 -9 11
-34 25 -55 l26 -37 124 0 c124 0 125 0 125 23 0 12 -9 40 -20 62 -11 22 -20
45 -20 51 0 6 -7 25 -15 40 -8 16 -15 36 -15 45 0 8 -7 24 -15 35 -8 10 -15
26 -15 34 0 9 -9 33 -19 54 -11 21 -23 52 -27 69 -4 18 -15 48 -25 67 -11 19
-19 44 -19 56 0 12 -6 27 -14 33 -7 6 -16 26 -20 44 -3 17 -12 46 -20 62 -42
92 -56 127 -56 143 0 9 -9 31 -20 47 -11 17 -20 40 -20 51 0 12 -6 27 -14 33
-8 6 -17 31 -20 56 -4 24 -14 49 -21 55 -8 7 -15 22 -15 34 -1 54 -34 66 -184
66 -113 0 -128 -2 -146 -20z m174 -276 c3 -9 6 -24 6 -34 0 -9 7 -23 15 -30 8
-7 15 -22 15 -34 1 -11 9 -39 20 -61 11 -22 19 -49 20 -60 0 -11 9 -37 20 -58
11 -20 20 -45 20 -55 0 -10 7 -27 15 -38 8 -10 15 -34 15 -52 l0 -32 -167 2
-168 3 3 34 c1 19 7 40 13 48 6 7 15 27 20 45 11 45 47 146 65 185 7 17 14 38
14 46 0 9 4 19 10 22 5 3 14 24 20 45 11 41 33 53 44 24z"/>
<path d="M3900 3400 c-25 -4 -64 -17 -88 -29 -38 -19 -42 -24 -36 -49 10 -43
21 -47 54 -18 35 29 52 32 68 13 8 -9 4 -26 -14 -62 -13 -28 -24 -55 -24 -60
0 -6 -9 -27 -20 -48 -11 -20 -20 -48 -20 -62 0 -13 -9 -42 -21 -64 -26 -50
-22 -72 14 -84 35 -11 37 -9 44 45 9 70 17 78 77 78 35 0 58 5 66 15 7 8 18
15 24 15 20 0 106 90 106 110 0 11 4 20 10 20 18 0 23 50 7 68 -8 9 -17 26
-21 37 -3 11 -21 32 -39 47 -38 30 -112 41 -187 28z m158 -66 c28 -13 32 -21
32 -55 0 -27 -6 -45 -20 -56 -11 -10 -20 -23 -20 -30 0 -7 -4 -13 -9 -13 -6 0
-22 -11 -37 -25 -28 -26 -35 -29 -69 -25 -34 3 -41 18 -17 40 12 12 22 28 22
36 0 8 11 36 25 61 15 27 23 53 20 64 -5 15 -1 19 18 19 13 0 38 -7 55 -16z"/>
<path d="M6220 3298 c-13 -28 -17 -45 -10 -53 7 -9 6 -16 -5 -25 -8 -7 -15
-21 -15 -30 0 -29 -11 -50 -26 -50 -8 0 -14 -9 -14 -20 0 -26 -109 -140 -134
-140 -16 0 -18 6 -13 46 5 51 14 60 69 69 23 4 38 12 38 21 0 8 9 23 20 34 11
11 20 31 20 45 0 25 -41 71 -73 81 -26 8 -74 -40 -82 -82 -3 -20 -12 -34 -20
-34 -10 0 -15 -10 -15 -29 0 -39 -9 -61 -25 -61 -8 0 -15 -10 -17 -22 -4 -30
-22 -30 -26 0 -2 13 3 25 12 28 9 3 16 16 16 28 0 37 12 66 26 66 17 0 19 51
2 68 -21 21 -58 14 -68 -13 -5 -14 -16 -25 -25 -25 -9 0 -15 -9 -15 -24 0 -14
-5 -28 -11 -32 -9 -5 -10 6 -7 39 3 26 1 50 -5 56 -18 18 -44 13 -50 -9 -7
-28 -26 -25 -37 5 -9 25 -47 47 -62 38 -5 -2 -11 -22 -14 -44 -4 -23 -12 -43
-19 -45 -7 -3 -15 -22 -19 -44 -3 -21 -12 -40 -20 -43 -8 -3 -17 -19 -21 -36
-8 -36 -20 -40 -29 -8 -8 31 -8 34 8 50 8 8 21 39 29 70 15 58 10 77 -23 77
-16 0 -70 -55 -70 -72 0 -5 -4 -6 -10 -3 -5 3 -10 16 -10 28 0 37 -14 50 -48
42 -24 -5 -32 -13 -37 -36 -10 -42 -29 -30 -35 21 -5 46 -25 64 -37 33 -3 -10
-14 -26 -25 -36 -10 -10 -18 -29 -18 -43 0 -33 -49 -136 -61 -129 -15 10 -11
95 5 101 27 10 30 124 3 124 -5 0 -16 -8 -22 -17 -13 -17 -14 -17 -32 0 -11 9
-28 17 -39 17 -30 -1 -72 -44 -84 -89 -6 -23 -15 -41 -20 -41 -4 0 -11 -19
-15 -41 -5 -29 -13 -43 -26 -46 -10 -3 -19 -14 -19 -24 0 -11 -4 -19 -10 -19
-15 0 -12 40 5 56 9 9 16 35 16 62 2 67 0 74 -27 100 -19 20 -21 28 -13 44 13
24 -4 48 -35 48 -31 0 -46 -19 -46 -57 0 -41 -41 -74 -69 -55 -9 7 -27 17 -41
24 -14 7 -33 18 -42 26 -14 12 -20 11 -47 -9 -17 -13 -31 -28 -31 -34 0 -6
-13 -16 -30 -22 -28 -10 -32 -9 -65 28 -19 21 -44 39 -55 39 -21 0 -79 -56
-80 -76 0 -6 -6 -17 -14 -23 -8 -7 -17 -27 -20 -45 -4 -18 -15 -41 -26 -51
-11 -10 -20 -24 -20 -32 0 -7 -7 -13 -15 -13 -18 0 -11 45 11 71 23 26 18 97
-8 125 -16 16 -23 35 -23 61 0 37 -1 38 -35 38 l-35 0 -3 -57 c-2 -42 -7 -58
-17 -58 -8 0 -17 -15 -21 -37 -4 -21 -13 -44 -21 -51 -7 -7 -16 -31 -19 -52
-4 -21 -13 -41 -20 -44 -17 -7 -19 -72 -2 -82 20 -12 55 40 62 94 4 30 12 52
21 56 9 3 15 19 15 38 0 18 4 38 8 43 7 10 48 35 57 35 9 0 5 -38 -5 -42 -5
-1 -14 -25 -19 -52 -5 -27 -13 -51 -19 -55 -10 -6 -16 -47 -14 -87 1 -12 13
-26 28 -33 24 -11 31 -9 65 19 21 16 40 30 42 30 3 0 8 -11 11 -25 4 -16 13
-25 25 -25 11 0 21 -5 23 -11 5 -15 51 11 82 48 14 17 26 43 26 57 0 15 7 29
15 32 8 4 15 14 15 23 0 9 6 33 13 53 l13 38 18 -55 c11 -37 14 -60 8 -72 -6
-10 -8 -37 -5 -60 3 -33 1 -43 -10 -43 -26 0 -67 -41 -67 -65 0 -14 14 -40 31
-60 25 -29 38 -35 69 -35 21 0 45 6 52 13 7 7 28 23 46 36 17 12 32 28 32 36
0 7 15 30 34 51 25 28 35 50 40 87 3 27 12 57 21 67 8 9 15 25 15 36 0 36 11
59 37 78 33 25 53 8 30 -27 -8 -13 -19 -42 -22 -63 -4 -21 -13 -49 -21 -61
-21 -33 -17 -67 9 -92 20 -18 28 -20 51 -11 14 5 29 17 32 25 8 19 34 20 34 1
0 -22 23 -35 53 -29 18 4 27 12 27 24 0 30 18 32 53 5 43 -33 51 -32 66 1 12
27 13 27 27 8 8 -10 14 -22 14 -27 0 -4 9 -8 19 -8 25 0 51 36 51 71 0 33 25
57 34 33 3 -8 6 -26 6 -39 0 -40 11 -55 40 -55 24 0 28 5 36 42 9 43 34 65 34
30 0 -24 46 -82 65 -82 8 0 17 9 20 20 8 25 13 25 45 0 45 -35 70 -22 70 36 0
15 6 24 15 24 8 0 15 -4 15 -9 0 -4 13 -23 29 -41 31 -36 51 -34 51 5 0 13 8
30 18 37 10 7 22 26 26 42 6 23 9 27 17 15 12 -19 12 -59 -1 -59 -5 0 0 -16
11 -35 18 -30 25 -34 47 -28 15 3 32 13 38 21 10 13 17 11 51 -17 38 -31 40
-31 71 -15 18 8 32 20 32 25 0 15 27 10 34 -6 8 -21 36 -19 36 3 0 9 9 34 20
55 11 20 20 50 20 65 0 16 9 37 20 47 11 10 20 31 20 46 0 32 10 41 29 29 18
-11 9 -85 -13 -109 -11 -12 -16 -37 -16 -80 0 -57 2 -62 27 -72 22 -8 30 -6
55 18 15 14 28 33 28 40 0 8 9 26 20 41 13 17 18 35 14 45 -9 25 -23 21 -30
-8 -8 -33 -28 -27 -32 10 -2 18 2 31 12 37 17 10 23 88 7 88 -5 0 -19 14 -32
31 -16 23 -19 33 -10 42 18 18 13 33 -14 45 -35 16 -32 17 -55 -30z m-1067
-123 c-1 -16 -9 -33 -18 -37 -8 -5 -15 -17 -15 -28 0 -29 -11 -50 -26 -50 -8
0 -14 -9 -14 -20 0 -11 -7 -20 -15 -20 -19 0 -20 34 -1 49 7 6 16 30 19 53 3
23 13 45 21 50 9 5 16 16 16 24 0 9 7 14 18 12 12 -3 16 -12 15 -33z m575 18
c-5 -25 -28 -28 -28 -4 0 12 6 21 16 21 9 0 14 -7 12 -17z m-1026 -15 c13 -20
13 -28 1 -56 -7 -18 -19 -32 -26 -29 -22 7 -20 107 2 107 5 0 15 -10 23 -22z
m1398 12 c0 -5 -7 -10 -15 -10 -8 0 -15 -9 -15 -20 0 -11 -7 -20 -15 -20 -17
0 -18 4 -9 38 4 15 14 22 30 22 13 0 24 -4 24 -10z m-1631 -44 c13 -33 2 -104
-19 -119 -9 -7 -19 -20 -23 -29 -3 -10 -11 -18 -17 -18 -15 0 -11 72 5 94 8
11 15 30 15 42 0 53 24 71 39 30z m341 -6 c0 -17 -6 -33 -14 -36 -8 -3 -17
-21 -21 -41 -3 -19 -11 -40 -16 -47 -5 -6 -16 -20 -23 -30 -13 -19 -15 -19
-38 -4 -37 25 -42 57 -12 69 14 5 29 9 33 9 5 0 11 9 14 21 3 11 15 23 27 26
16 4 20 11 16 28 -6 24 0 35 21 35 8 0 13 -12 13 -30z m530 10 c0 -5 -4 -10
-10 -10 -5 0 -10 5 -10 10 0 6 5 10 10 10 6 0 10 -4 10 -10z m150 -76 c0 -8
-5 -12 -10 -9 -6 4 -8 11 -5 16 9 14 15 11 15 -7z m-823 -154 c3 -11 9 -20 14
-20 19 0 8 -28 -13 -34 -67 -18 -96 1 -78 49 12 33 69 36 77 5z"/>
</g>
</svg>
